# xmcd CD database file
#
# Track frame offsets:
#	150
#	9330
#	22550
#	27355
#	35137
#	52550
#	63965
#	78447
#	91267
#	109990
#	126242
#	152115
#	175182
#	203332
#	207030
#
# Disc length: 3049 seconds
#
# Revision: 1
# Processed by: cddbd v1.5.2PL0 Copyright (c) Steve Scherf et al.
# Submitted via: Kat CD Ripper 
#
DISCID=ab0be70f
DTITLE=Lizzie West and Baba Buffalo - THE TUMBLEWEED CABARET
DYEAR=2008
DGENRE=Country
TTITLE0=Introducing the Dream
TTITLE1=Magical Tumbleweed
TTITLE2=Do You Re Member
TTITLE3=Universal Land
TTITLE4=Take These Demons
TTITLE5=Chapter 3
TTITLE6=Gently Bring Me Home
TTITLE7=Dr. Tumbleweed
TTITLE8=Family Christmas
TTITLE9=Fly in Love
TTITLE10=Protect the Light
TTITLE11=Brother Can You Spare a Dime
TTITLE12=Look What They've Done to My Song
TTITLE13=Clock People
TTITLE14=Mercy Me
EXTD=YEAR: 2008
EXTT0=
EXTT1=
EXTT2=
EXTT3=
EXTT4=
EXTT5=
EXTT6=
EXTT7=
EXTT8=
EXTT9=
EXTT10=
EXTT11=
EXTT12=
EXTT13=
EXTT14=
PLAYORDER=
